<svg width="40" height="41" viewBox="0 0 40 41" fill="none" xmlns="http://www.w3.org/2000/svg">
<path d="M20.0007 3.83301C16.7043 3.83301 13.482 4.81049 10.7412 6.64185C8.00034 8.4732 5.86413 11.0762 4.60267 14.1216C3.34121 17.1671 3.01115 20.5182 3.65424 23.7512C4.29732 26.9842 5.88467 29.9539 8.21555 32.2848C10.5464 34.6157 13.5161 36.203 16.7492 36.8461C19.9822 37.4892 23.3333 37.1591 26.3787 35.8977C29.4242 34.6362 32.0271 32.5 33.8585 29.7592C35.6898 27.0184 36.6673 23.796 36.6673 20.4997C36.6673 18.311 36.2362 16.1437 35.3987 14.1216C34.5611 12.0995 33.3334 10.2622 31.7858 8.71456C30.2381 7.16692 28.4008 5.93926 26.3787 5.10168C24.3566 4.2641 22.1894 3.83301 20.0007 3.83301ZM20.0007 33.833C17.3636 33.833 14.7857 33.051 12.5931 31.5859C10.4004 30.1209 8.69143 28.0385 7.68227 25.6021C6.6731 23.1658 6.40905 20.4849 6.92352 17.8985C7.43799 15.3121 8.70787 12.9363 10.5726 11.0716C12.4373 9.20688 14.813 7.93701 17.3995 7.42254C19.9859 6.90807 22.6668 7.17211 25.1031 8.18128C27.5395 9.19045 29.6218 10.8994 31.0869 13.0921C32.552 15.2847 33.334 17.8626 33.334 20.4997C33.334 24.0359 31.9292 27.4273 29.4287 29.9278C26.9283 32.4283 23.5369 33.833 20.0007 33.833Z" fill="#32D681"/>
<path d="M19.9993 10.5001C18.4523 10.5001 16.9685 11.1147 15.8746 12.2087C14.7806 13.3026 14.166 14.7863 14.166 16.3334C14.166 16.7755 14.3416 17.1994 14.6542 17.512C14.9667 17.8245 15.3907 18.0001 15.8327 18.0001C16.2747 18.0001 16.6986 17.8245 17.0112 17.512C17.3238 17.1994 17.4993 16.7755 17.4993 16.3334C17.4993 15.839 17.646 15.3556 17.9207 14.9445C18.1954 14.5334 18.5858 14.213 19.0426 14.0237C19.4995 13.8345 20.0021 13.785 20.4871 13.8815C20.972 13.9779 21.4175 14.216 21.7671 14.5657C22.1167 14.9153 22.3548 15.3608 22.4513 15.8457C22.5478 16.3307 22.4983 16.8333 22.309 17.2902C22.1198 17.747 21.7994 18.1374 21.3883 18.4121C20.9772 18.6868 20.4938 18.8334 19.9993 18.8334C19.5573 18.8334 19.1334 19.009 18.8208 19.3216C18.5083 19.6342 18.3327 20.0581 18.3327 20.5001V23.8334C18.3327 24.2755 18.5083 24.6994 18.8208 25.012C19.1334 25.3245 19.5573 25.5001 19.9993 25.5001C20.4414 25.5001 20.8653 25.3245 21.1779 25.012C21.4904 24.6994 21.666 24.2755 21.666 23.8334V21.9001C23.0129 21.5068 24.1721 20.6399 24.9302 19.4592C25.6882 18.2785 25.9939 16.8636 25.7909 15.4752C25.588 14.0869 24.89 12.8187 23.8257 11.9044C22.7613 10.9902 21.4024 10.4914 19.9993 10.5001Z" fill="#32D681"/>
<path d="M20.0007 30.5003C20.9211 30.5003 21.6673 29.7541 21.6673 28.8337C21.6673 27.9132 20.9211 27.167 20.0007 27.167C19.0802 27.167 18.334 27.9132 18.334 28.8337C18.334 29.7541 19.0802 30.5003 20.0007 30.5003Z" fill="#32D681"/>
</svg>
