<svg width="77" height="52" viewBox="0 0 77 52" fill="none" xmlns="http://www.w3.org/2000/svg">
<g filter="url(#filter0_b_2555_6371)">
<path d="M5.11506 4.30657e-05L21.835 4.30657e-05C21.8337 1.72583 21.8368 12.1666 21.835 14.1293C20.1964 12.6144 18.0521 11.7309 15.7988 11.6422L11.1101 11.4406C10.7457 11.4275 10.3909 11.5559 10.123 11.7977C9.85506 12.0395 9.69582 12.375 9.67998 12.7312L9.47373 17.3289C9.4179 18.6723 9.66626 20.0112 10.2011 21.2499C10.7359 22.4885 11.5439 23.5964 12.5675 24.4943C10.6029 24.4973 1.77669 24.4902 0 24.4943L0 5.00107C0.00210921 3.67534 0.541695 2.4045 1.5005 1.46707C2.45931 0.529635 3.75912 0.00208746 5.11506 4.30657e-05ZM74.91 0.981429C74.0382 0.340235 72.9758 -0.00443374 71.8849 4.30657e-05L24.585 4.30657e-05C24.5989 1.66168 24.5751 12.2304 24.585 14.1427C26.2223 12.6239 28.3664 11.7358 30.6213 11.6422L35.3238 11.4406C35.6884 11.4266 36.0438 11.5546 36.3119 11.7966C36.58 12.0386 36.7389 12.3747 36.7538 12.7312L36.9463 17.3289C37.0021 18.6723 36.7537 20.0112 36.2189 21.2499C35.6841 22.4885 34.8761 23.5964 33.8525 24.4943H76.9999V5.00107C77.0038 4.21682 76.8162 3.44299 76.4527 2.74387C76.0892 2.04476 75.5603 1.44054 74.91 0.981429ZM14.4788 38.0993C14.2342 38.097 13.9947 38.0314 13.7845 37.9091C13.5743 37.7869 13.401 37.6124 13.2823 37.4034C13.1635 37.1943 13.1035 36.9583 13.1084 36.7192C13.1133 36.4802 13.1828 36.2466 13.31 36.0424L18.9613 27.1831H6.88433e-05L6.88433e-05 46.999C0.002178 48.3247 0.541755 49.5955 1.50055 50.533C2.45934 51.4704 3.75913 51.9979 5.11506 52H21.835L21.835 27.7611L15.6475 37.4674C15.5224 37.66 15.3498 37.8187 15.1456 37.9291C14.9414 38.0395 14.7121 38.098 14.4788 38.0993ZM15.6888 14.331L12.375 14.1831L12.2238 17.4364C12.1517 19.1512 12.7788 20.8239 13.9674 22.0868C15.156 23.3497 16.8087 24.0996 18.5625 24.1717L21.835 24.3061V19.2513C21.4978 17.8889 20.7152 16.6713 19.6059 15.7833C18.4967 14.8953 17.1214 14.3854 15.6888 14.331ZM34.1963 17.4364L34.0588 14.1831L30.7313 14.331C29.2935 14.3889 27.9147 14.9051 26.805 15.8008C25.6953 16.6964 24.9156 17.9224 24.585 19.2917V24.3061L27.8438 24.1717C28.7133 24.1374 29.5673 23.936 30.3572 23.579C31.1471 23.2219 31.8572 22.7162 32.4472 22.0908C33.0371 21.4653 33.4952 20.7323 33.7953 19.9337C34.0954 19.1351 34.2317 18.2865 34.1963 17.4364ZM74.25 27.1831H76.9999V46.999C76.9922 48.323 76.4509 49.5907 75.4933 50.5269C74.5357 51.4631 73.2391 51.9925 71.8849 52L24.585 52C24.597 51.6861 24.5685 29.0601 24.585 27.7611L30.7725 37.4674C30.9695 37.7626 31.2769 37.9705 31.6289 38.0466C31.9809 38.1227 32.3493 38.0609 32.6552 37.8744C32.9611 37.6879 33.18 37.3917 33.265 37.0492C33.3501 36.7067 33.2944 36.3452 33.11 36.0424L27.4588 27.1831L74.25 27.1831ZM49.4175 35.7198L66.88 35.7198C67.2404 35.7135 67.5838 35.5691 67.8365 35.3177C68.0891 35.0662 68.2306 34.7279 68.2306 34.3754C68.2306 34.023 68.0891 33.6847 67.8365 33.4332C67.5839 33.1818 67.2405 33.0374 66.88 33.031L49.4175 33.031C49.0564 33.0363 48.7118 33.1802 48.4583 33.4318C48.2048 33.6833 48.0627 34.0223 48.0627 34.3754C48.0627 34.7285 48.2048 35.0675 48.4583 35.319C48.7118 35.5706 49.0564 35.7145 49.4175 35.7198ZM49.4175 44.27L66.88 44.27C67.2404 44.2637 67.5838 44.1193 67.8365 43.8679C68.0891 43.6164 68.2306 43.2781 68.2306 42.9257C68.2306 42.5732 68.0891 42.2349 67.8365 41.9834C67.5839 41.732 67.2405 41.5876 66.88 41.5813L49.4175 41.5813C49.0567 41.5871 48.7128 41.7312 48.4597 41.9827C48.2067 42.2342 48.0649 42.5728 48.0649 42.9256C48.0649 43.2784 48.2067 43.617 48.4597 43.8685C48.7128 44.1199 49.0567 44.2642 49.4175 44.27Z" fill="white" fill-opacity="0.5"/>
</g>
<defs>
<filter id="filter0_b_2555_6371" x="-4" y="-4" width="85" height="60" filterUnits="userSpaceOnUse" color-interpolation-filters="sRGB">
<feFlood flood-opacity="0" result="BackgroundImageFix"/>
<feGaussianBlur in="BackgroundImageFix" stdDeviation="2"/>
<feComposite in2="SourceAlpha" operator="in" result="effect1_backgroundBlur_2555_6371"/>
<feBlend mode="normal" in="SourceGraphic" in2="effect1_backgroundBlur_2555_6371" result="shape"/>
</filter>
</defs>
</svg>
