<svg width="11" height="16" viewBox="0 0 11 16" fill="none" xmlns="http://www.w3.org/2000/svg">
<path fill-rule="evenodd" clip-rule="evenodd" d="M5.33337 14.4763C8.27891 14.4763 10.6667 12.0885 10.6667 9.14294C10.6667 6.1974 8.27891 3.80957 5.33337 3.80957C2.38783 3.80957 0 6.1974 0 9.14294C0 12.0885 2.38783 14.4763 5.33337 14.4763ZM6.93822 8.06742L5.6333 7.3181C5.4477 7.21152 5.21904 7.21152 5.03344 7.3181L3.72852 8.06742C3.54293 8.17399 3.4286 8.37095 3.4286 8.5841V10.0827C3.4286 10.2959 3.54293 10.4928 3.72852 10.5994L5.03344 11.3487C5.21904 11.4553 5.4477 11.4553 5.6333 11.3487L6.93822 10.5994C7.12381 10.4928 7.23815 10.2959 7.23815 10.0827V8.5841C7.23815 8.37095 7.12381 8.17399 6.93822 8.06742Z" fill="#32D681"/>
<mask id="mask0_5016_7476" style="mask-type:alpha" maskUnits="userSpaceOnUse" x="0" y="3" width="11" height="12">
<path fill-rule="evenodd" clip-rule="evenodd" d="M5.33337 14.4763C8.27891 14.4763 10.6667 12.0885 10.6667 9.14294C10.6667 6.1974 8.27891 3.80957 5.33337 3.80957C2.38783 3.80957 0 6.1974 0 9.14294C0 12.0885 2.38783 14.4763 5.33337 14.4763ZM6.93821 8.06751L5.63329 7.31818C5.44769 7.21161 5.21904 7.21161 5.03344 7.31818L3.72851 8.06751C3.54292 8.17408 3.42859 8.37103 3.42859 8.58418V10.0828C3.42859 10.296 3.54292 10.4929 3.72851 10.5995L5.03344 11.3488C5.21904 11.4554 5.44769 11.4554 5.63329 11.3488L6.93821 10.5995C7.1238 10.4929 7.23814 10.296 7.23814 10.0828V8.58418C7.23814 8.37103 7.1238 8.17408 6.93821 8.06751Z" fill="#32D681"/>
</mask>
<g mask="url(#mask0_5016_7476)">
<g filter="url(#filter0_d_5016_7476)">
<path d="M0 6.09528L0 0C1.89356 0 3.4286 1.53504 3.4286 3.4286L3.4286 9.52388C1.53503 9.52388 0 7.98884 0 6.09528Z" fill="#32D681"/>
</g>
<path d="M0 11.762L0 3C1.89356 3 3.4286 4.53504 3.4286 6.4286L3.4286 15.1906C1.53503 15.1906 0 13.6555 0 11.762Z" fill="#32D681"/>
</g>
<rect y="15.2383" width="10.6667" height="0.76191" rx="0.380955" fill="#32D681"/>
<path d="M0 8.76196L0 0C1.89356 0 3.4286 1.53504 3.4286 3.4286L3.4286 12.1906C1.53503 12.1906 0 10.6555 0 8.76196Z" fill="#32D681"/>
<defs>
<filter id="filter0_d_5016_7476" x="-6" y="-8" width="19.4277" height="25.5234" filterUnits="userSpaceOnUse" color-interpolation-filters="sRGB">
<feFlood flood-opacity="0" result="BackgroundImageFix"/>
<feColorMatrix in="SourceAlpha" type="matrix" values="0 0 0 0 0 0 0 0 0 0 0 0 0 0 0 0 0 0 127 0" result="hardAlpha"/>
<feOffset dx="2"/>
<feGaussianBlur stdDeviation="4"/>
<feComposite in2="hardAlpha" operator="out"/>
<feColorMatrix type="matrix" values="0 0 0 0 0.00265552 0 0 0 0 0.199167 0 0 0 0 0.0973165 0 0 0 0.5 0"/>
<feBlend mode="normal" in2="BackgroundImageFix" result="effect1_dropShadow_5016_7476"/>
<feBlend mode="normal" in="SourceGraphic" in2="effect1_dropShadow_5016_7476" result="shape"/>
</filter>
</defs>
</svg>
