<svg width="52" height="52" viewBox="0 0 52 52" fill="none" xmlns="http://www.w3.org/2000/svg">
<path d="M21.0002 2.88675C24.0942 1.10042 27.9062 1.10042 31.0002 2.88675L43.4663 10.084C46.5603 11.8704 48.4663 15.1716 48.4663 18.7443V33.1389C48.4663 36.7115 46.5603 40.0128 43.4663 41.7991L31.0002 48.9964C27.9062 50.7827 24.0942 50.7827 21.0002 48.9964L8.53411 41.7991C5.4401 40.0128 3.53411 36.7115 3.53411 33.1389V18.7443C3.53411 15.1716 5.4401 11.8704 8.53411 10.084L21.0002 2.88675Z" fill="#32D681"/>
<path fill-rule="evenodd" clip-rule="evenodd" d="M26.0001 35.715C30.4184 35.715 34.0001 32.1332 34.0001 27.7149C34.0001 23.2966 30.4184 19.7148 26.0001 19.7148C21.5817 19.7148 18 23.2966 18 27.7149C18 32.1332 21.5817 35.715 26.0001 35.715ZM28.4073 26.1016L26.4499 24.9776C26.1715 24.8178 25.8286 24.8178 25.5502 24.9776L23.5928 26.1016C23.3144 26.2615 23.1429 26.5569 23.1429 26.8766V29.1246C23.1429 29.4443 23.3144 29.7398 23.5928 29.8996L25.5502 31.0236C25.8286 31.1835 26.1715 31.1835 26.4499 31.0236L28.4073 29.8996C28.6857 29.7398 28.8572 29.4443 28.8572 29.1246V26.8766C28.8572 26.5569 28.6857 26.2615 28.4073 26.1016Z" fill="white"/>
<mask id="mask0_6002_16467" style="mask-type:alpha" maskUnits="userSpaceOnUse" x="18" y="19" width="16" height="17">
<path fill-rule="evenodd" clip-rule="evenodd" d="M26.0001 35.715C30.4184 35.715 34.0001 32.1332 34.0001 27.7149C34.0001 23.2966 30.4184 19.7148 26.0001 19.7148C21.5817 19.7148 18 23.2966 18 27.7149C18 32.1332 21.5817 35.715 26.0001 35.715ZM28.4074 26.1017L26.45 24.9777C26.1716 24.8178 25.8286 24.8178 25.5502 24.9777L23.5928 26.1017C23.3144 26.2615 23.1429 26.557 23.1429 26.8767V29.1247C23.1429 29.4444 23.3144 29.7398 23.5928 29.8997L25.5502 31.0237C25.8286 31.1835 26.1716 31.1835 26.45 31.0237L28.4074 29.8997C28.6858 29.7398 28.8573 29.4444 28.8573 29.1247V26.8767C28.8573 26.557 28.6858 26.2615 28.4074 26.1017Z" fill="#32D681"/>
</mask>
<g mask="url(#mask0_6002_16467)">
<g filter="url(#filter0_d_6002_16467)">
<path d="M18 24.2858V14C20.8403 14 23.1429 16.3025 23.1429 19.1429V28.2858H22C19.7909 28.2858 18 26.495 18 24.2858Z" fill="white"/>
</g>
<path d="M18 32.2858V22C20.8403 22 23.1429 24.3025 23.1429 27.1429V36.2858H22C19.7909 36.2858 18 34.495 18 32.2858Z" fill="white"/>
</g>
<rect x="18" y="36.8564" width="16.0001" height="1.14287" rx="0.571433" fill="white"/>
<path d="M18 27.143V14C20.8403 14 23.1429 16.3026 23.1429 19.1429V32.2858C20.3026 32.2858 18 29.9833 18 27.143Z" fill="white"/>
<defs>
<filter id="filter0_d_6002_16467" x="10" y="2" width="29.1426" height="38.2861" filterUnits="userSpaceOnUse" color-interpolation-filters="sRGB">
<feFlood flood-opacity="0" result="BackgroundImageFix"/>
<feColorMatrix in="SourceAlpha" type="matrix" values="0 0 0 0 0 0 0 0 0 0 0 0 0 0 0 0 0 0 127 0" result="hardAlpha"/>
<feOffset dx="4"/>
<feGaussianBlur stdDeviation="6"/>
<feComposite in2="hardAlpha" operator="out"/>
<feColorMatrix type="matrix" values="0 0 0 0 0.00265552 0 0 0 0 0.199167 0 0 0 0 0.0973165 0 0 0 0.5 0"/>
<feBlend mode="normal" in2="BackgroundImageFix" result="effect1_dropShadow_6002_16467"/>
<feBlend mode="normal" in="SourceGraphic" in2="effect1_dropShadow_6002_16467" result="shape"/>
</filter>
</defs>
</svg>
